<?xml version="1.0" standalone="no"?>
<!DOCTYPE svg PUBLIC "-//W3C//DTD SVG 20010904//EN"
 "http://www.w3.org/TR/2001/REC-SVG-20010904/DTD/svg10.dtd">
<svg version="1.0" xmlns="http://www.w3.org/2000/svg"
 width="272.000000pt" height="272.000000pt" viewBox="0 0 272.000000 272.000000"
 preserveAspectRatio="xMidYMid meet">
<metadata>
Created by potrace 1.14, written by Peter Selinger 2001-2017
</metadata>
<g transform="translate(0.000000,272.000000) scale(0.100000,-0.100000)"
fill="#000000" stroke="none">
<path d="M170 1445 l0 -935 510 0 510 0 0 170 0 170 -340 0 -340 0 0 765 0
765 -170 0 -170 0 0 -935z"/>
<path d="M1360 1445 l0 -935 595 0 595 0 0 935 0 935 -595 0 -595 0 0 -935z
m850 0 l0 -595 -255 0 -255 0 0 595 0 595 255 0 255 0 0 -595z"/>
</g>
</svg>
